<svg xmlns="http://www.w3.org/2000/svg" version="1.1" xmlns:xlink="http://www.w3.org/1999/xlink" xmlns:svgjs="http://svgjs.dev/svgjs" viewBox="0 0 800 800"><defs><filter id="uuunion-blur" x="-100%" y="-100%" width="400%" height="400%" color-interpolation-filters="sRGB">
        <feGaussianBlur in="SourceGraphic" stdDeviation="7.5 0" result="blur"></feGaussianBlur>
        <feDropShadow stdDeviation="12.307692307692308" in="blur" dx="10" dy="10" flood-color="hsl(316, 73%, 52%)" flood-opacity="0.25" x="0%" y="0%" width="100%" height="100%"></feDropShadow>
      </filter><filter id="uuunion-blur2" x="-100%" y="-100%" width="400%" height="400%" color-interpolation-filters="sRGB">
        <feGaussianBlur in="SourceGraphic" stdDeviation="7.5 0" result="blur"></feGaussianBlur>
        <feDropShadow stdDeviation="12.307692307692308" in="blur" dx="-10" dy="-10" flood-color="hsl(316, 73%, 52%)" flood-opacity="0.25" x="0%" y="0%" width="100%" height="100%"></feDropShadow>
      </filter><linearGradient gradientTransform="rotate(0, 0.5, 0.5)" x1="50%" y1="0%" x2="50%" y2="100%" id="uuunion-grad"><stop stop-color="hsl(37, 99%, 67%)" offset="10%"></stop><stop stop-color="hsl(316, 73%, 52%)" offset="90%"></stop></linearGradient><linearGradient gradientTransform="rotate(135, 0.5, 0.5)" x1="50%" y1="0%" x2="50%" y2="100%" id="uuunion-grad2"><stop stop-color="hsl(37, 99%, 67%)" offset="25%"></stop><stop stop-color="hsl(316, 73%, 52%)" offset="100%"></stop></linearGradient><linearGradient gradientTransform="rotate(333, 0.5, 0.5)" x1="50%" y1="0%" x2="50%" y2="100%" id="uuunion-grad3"><stop stop-color="hsl(37, 99%, 67%)" offset="0%"></stop><stop stop-color="hsl(316, 73%, 52%)" offset="75%"></stop></linearGradient></defs><path d="M-78.99 -78.32Q-64.35 -76.17 -49.71 -74.27 -35.07 -72.75 -20.43 -71.71 -5.78 -71.23 8.85 -71.33 23.49 -72 38.13 -73.21 52.77 -74.86 67.41 -76.86 82.06 -79.07 96.7 -81.34 111.34 -83.52 125.98 -85.46 140.62 -87.05 155.27 -88.16 169.91 -88.73 184.55 -88.72 199.19 -88.12 213.83 -86.99 228.48 -85.4 243.12 -83.44 257.76 -81.25 272.4 -78.98 287.04 -76.78 301.69 -74.79 316.33 -73.15 330.97 -71.96 345.61 -71.31 360.25 -71.24 374.9 -71.74 389.54 -72.8 404.18 -74.33 418.82 -76.25 433.46 -78.41 448.11 -80.67 462.75 -82.89 477.39 -84.92 492.03 -86.62 506.67 -87.88 521.32 -88.62 535.96 -88.78 550.6 -88.36 565.24 -87.38 579.88 -85.91 594.53 -84.05 609.17 -81.91 623.81 -79.65 638.45 -77.42 653.09 -75.35 667.74 -73.59 682.38 -72.26 697.02 -71.44 711.66 -71.2 726.3 -71.53 740.95 -72.43 755.59 -73.84 770.23 -75.65 784.87 -77.75 799.51 -80 814.16 -82.25 828.8 -84.35 843.44 -86.16 858.08 -87.56 855.93 -72.76 857.12 -57.95 861.5 -43.14 868.44 -28.34 876.99 -13.53 885.96 1.27 894.1 16.07 900.27 30.88 903.63 45.69 903.71 60.49 900.49 75.3 894.42 90.11 886.34 104.91 877.39 119.72 868.79 134.52 861.76 149.33 857.25 164.14 855.91 178.94 857.92 193.75 862.99 208.56 870.43 223.36 879.2 238.17 888.07 252.98 895.83 267.78 901.38 282.59 903.96 297.4 903.22 312.2 899.24 327.01 892.59 341.82 884.19 356.62 875.2 371.43 866.88 386.24 860.39 401.04 856.62 415.85 856.1 430.65 858.9 445.46 864.63 460.27 872.5 475.07 881.41 489.88 890.12 504.69 897.43 519.49 902.31 534.3 904.09 549.11 902.53 563.91 897.83 578.72 890.65 593.53 881.99 608.33 873.06 623.14 865.09 637.95 859.19 652.75 856.18 667.56 856.48 682.37 860.05 697.17 866.4 711.98 874.63 726.78 883.61 741.59 892.08 756.4 898.88 771.2 903.05 786.01 904.02 800.82 901.65 815.62 896.27 830.43 888.62 845.24 879.78 860.04 864.79 863.73 849.79 868.51 834.79 874.04 819.8 879.98 804.8 885.91 789.8 891.45 774.81 896.23 759.81 899.93 744.81 902.3 729.82 903.19 714.82 902.54 699.82 900.38 684.83 896.87 669.83 892.24 654.83 886.8 639.84 880.9 624.84 874.94 609.84 869.32 594.85 864.4 579.85 860.53 564.85 857.95 549.86 856.83 534.86 857.26 519.87 859.2 504.87 862.52 489.87 867 474.88 872.35 459.88 878.21 444.88 884.18 429.89 889.88 414.89 894.92 399.89 898.97 384.9 901.75 369.9 903.09 354.9 902.89 339.91 901.17 324.91 898.04 309.91 893.71 294.92 888.47 279.92 882.66 264.92 876.68 249.93 870.92 234.93 865.76 219.94 861.55 204.94 858.56 189.94 857 174.95 856.97 159.95 858.48 144.95 861.41 129.96 865.58 114.96 870.71 99.96 876.45 84.97 882.43 69.97 888.25 54.97 893.52 39.98 897.89 24.98 901.07 9.98 902.85 -5 903.11 -20 901.83 -35 899.1 -49.99 895.1 -64.99 890.09 -79.99 884.41 -80.39 869.37 -80.74 854.32 -80.98 839.28 -81.09 824.24 -81.05 809.2 -80.86 794.15 -80.55 779.11 -80.16 764.07 -79.75 749.02 -79.37 733.98 -79.08 718.94 -78.92 703.9 -78.91 688.85 -79.05 673.81 -79.31 658.77 -79.68 643.73 -80.09 628.68 -80.48 613.64 -80.81 598.6 -81.02 583.55 -81.09 568.51 -81.01 553.47 -80.79 538.43 -80.46 523.38 -80.06 508.34 -79.65 493.3 -79.29 478.25 -79.03 463.21 -78.9 448.17 -78.93 433.13 -79.1 418.08 -79.4 403.04 -79.78 388 -80.19 372.95 -80.57 357.91 -80.87 342.87 -81.05 327.83 -81.09 312.78 -80.97 297.74 -80.72 282.7 -80.36 267.65 -79.96 252.61 -79.56 237.57 -79.22 222.53 -78.99 207.48 -78.9 192.44 -78.96 177.4 -79.16 162.35 -79.48 147.31 -79.88 132.27 -80.28 117.23 -80.65 102.18 -80.93 87.14 -81.08 72.1 -81.07 57.06 -80.92 42.01 -80.64 26.97 -80.27 11.93 -79.86 -3.11 -79.47 -18.15 -79.15 -33.19 -78.95 -48.23 -78.9 -63.28 -78.99 -78.32" fill="url(#uuunion-grad)"></path><path d="M-78.99 -78.32Q-78.9 -63.28 -78.95 -48.23 -79.15 -33.19 -79.47 -18.15 -79.86 -3.11 -80.27 11.93 -80.64 26.97 -80.92 42.01 -81.07 57.06 -81.08 72.1 -80.93 87.14 -80.65 102.18 -80.28 117.23 -79.88 132.27 -79.48 147.31 -79.16 162.35 -78.96 177.4 -78.9 192.44 -78.99 207.48 -79.22 222.53 -79.56 237.57 -79.96 252.61 -80.36 267.65 -80.72 282.7 -80.97 297.74 -81.09 312.78 -81.05 327.83 -80.87 342.87 -80.57 357.91 -80.19 372.95 -79.78 388 -79.4 403.04 -69.54 405.69 -59.68 408.17 -49.82 410.41 -39.97 412.34 -30.11 413.9 -20.25 415.05 -1.78 415.93 1.41 415.99 13.89 409.16 26.48 401.63 39.18 393.47 51.98 384.78 64.88 375.66 77.87 366.26 90.92 356.73 104.03 347.21 117.16 337.87 130.28 328.83 143.38 320.22 156.41 312.14 169.35 304.68 182.18 297.88 194.86 291.75 207.38 286.29 219.73 281.44 231.88 277.14 243.84 273.29 255.6 269.78 267.17 266.46 278.57 263.21 289.82 259.89 300.94 256.36 311.97 252.51 322.93 248.21 333.88 243.41 344.86 238.02 355.91 232.02 367.08 225.42 378.41 218.22 389.93 210.5 401.71 202.31 413.75 193.75 426.09 184.95 438.75 176.01 451.74 167.06 465.06 158.24 478.7 149.64 492.65 141.38 506.89 133.55 521.36 126.21 536.04 119.4 550.87 113.15 565.8 107.43 580.76 102.23 595.69 97.48 610.52 93.11 625.19 89.02 639.64 85.11 653.79 81.28 667.61 77.4 681.03 73.37 694.03 69.09 706.57 64.48 718.64 59.46 730.22 53.99 741.33 48.04 751.99 41.59 762.22 34.68 772.08 27.33 781.62 19.62 790.9 11.6 800 3.37 790.67 -14.21 783.11 -31.8 778.72 -49.39 778.35 -66.98 782.05 -84.56 789.13 -102.15 795.46 -127.63 777.63 -134.02 762.58 -132.9 747.54 -132.25 732.49 -132.11 717.45 -132.48 702.41 -133.35 687.36 -134.66 672.32 -136.32 657.28 -138.21 642.23 -140.23 627.19 -142.23 612.15 -144.08 597.1 -145.67 582.06 -146.88 567.02 -147.64 551.97 -147.89 536.93 -147.63 521.89 -146.87 506.84 -145.66 491.8 -144.07 476.76 -142.22 461.71 -140.22 446.67 -138.2 431.62 -136.31 416.58 -134.65 401.54 -133.35 386.49 -132.48 371.45 -132.11 356.41 -132.25 341.36 -132.91 326.32 -134.03 311.28 -135.54 296.23 -137.34 281.19 -139.32 266.15 -141.34 251.1 -143.28 236.06 -145 221.02 -146.39 205.97 -147.36 190.93 -147.84 175.88 -147.81 160.84 -147.27 145.8 -146.25 130.75 -144.82 115.71 -143.07 100.67 -141.12 85.62 -139.1 70.58 -137.13 55.54 -135.35 40.49 -133.88 25.45 -132.81 10.41 -132.21 -4.63 -132.12 -19.67 -132.55 -34.71 -133.47 -49.76 -134.82 -64.8 -136.5 -79.84 -138.42 -94.89 -140.44 -109.93 -142.43 -124.98 -144.26 -134.2 -132.27 -116.2 -113.6 -106.74 -104.89 -97.4 -96.09 -88.15 -87.22 -78.99 -78.32" fill="url(#uuunion-grad2)" filter="url(#uuunion-blur)"></path><path d="M788.03 405.39Q797.88 402.73 807.74 399.98 817.6 397.24 827.46 394.57 837.31 392.07 847.17 389.81 858.71 394.44 856.62 415.85 856.1 430.65 858.9 445.46 864.63 460.27 872.5 475.07 881.41 489.88 890.12 504.69 897.43 519.49 902.31 534.3 904.09 549.11 902.53 563.91 897.83 578.72 890.65 593.53 881.99 608.33 873.06 623.14 865.09 637.95 859.19 652.75 856.18 667.56 856.48 682.37 860.05 697.17 866.4 711.98 874.63 726.78 883.61 741.59 892.08 756.4 898.88 771.2 903.05 786.01 904.02 800.82 901.65 815.62 896.27 830.43 888.62 845.24 879.78 860.04 866.02 863.39 852.26 867.66 838.49 872.63 824.73 878 810.97 883.5 797.21 888.79 783.44 893.59 769.68 897.63 755.92 900.68 742.16 902.57 728.39 903.19 714.63 902.52 700.87 900.58 687.11 897.49 673.35 893.41 659.58 888.59 645.82 883.28 632.06 877.79 618.3 872.42 604.53 867.48 590.77 863.24 577.01 859.93 563.25 857.76 549.48 856.83 535.72 857.19 521.96 858.84 508.2 861.67 494.43 865.53 480.67 870.21 466.91 875.42 453.15 880.9 439.38 886.33 425.62 891.4 411.86 895.83 398.1 899.37 384.33 901.83 370.57 903.06 356.81 903 343.05 901.65 329.28 899.09 315.52 895.45 301.76 890.95 288 885.84 274.23 880.39 260.47 874.93 246.71 869.75 232.95 865.14 219.19 861.37 205.42 858.64 191.66 857.11 177.9 856.86 164.14 857.91 150.37 860.19 136.61 863.59 122.85 867.91 109.09 872.9 95.32 878.3 81.56 883.78 67.8 889.06 54.04 893.83 40.27 897.82 26.51 900.81 5.99 897.84 -0.54 882.89 -0.34 872.74 -0.18 862.59 -0.07 852.44 -0.02 842.29 0.18 827.07 0.91 822 13.61 815.14 26.23 807.31 38.75 798.58 51.15 789.07 63.45 778.94 75.62 768.37 87.68 757.57 99.63 746.75 111.49 736.12 123.28 725.88 135.01 716.2 146.72 707.26 158.43 699.15 170.18 691.97 181.99 685.74 193.9 680.45 205.93 676.06 218.12 672.46 230.48 669.54 243.04 667.12 255.81 665.03 268.8 663.07 282 661.05 295.42 658.76 309.03 656.04 322.83 652.71 336.77 648.65 350.84 643.77 364.99 638.02 379.17 631.36 393.35 623.85 407.47 615.53 421.49 606.52 435.36 596.95 449.02 586.97 462.45 576.77 475.59 566.52 488.43 556.42 500.93 546.64 513.07 537.33 524.87 528.64 536.3 520.67 547.4 513.5 558.18 507.15 568.67 501.62 578.92 496.88 588.97 492.84 598.88 489.39 608.72 486.41 618.56 483.72 628.45 481.17 638.48 478.59 648.71 475.8 659.2 472.64 670.03 468.99 681.24 464.72 692.89 459.74 705 454.02 717.6 447.53 730.71 440.29 744.33 432.36 758.44 423.82 780.52 410.09 788.03 405.39" fill="url(#uuunion-grad3)" filter="url(#uuunion-blur2)"></path></svg>